# xmcd CD database file
#
# Track frame offsets:
#	150
#	18791
#	35342
#	50692
#	64756
#
# Disc length: 1080 seconds
#
# Revision: 1
# Processed by: cddbd v1.5.2PL0 Copyright (c) Steve Scherf et al.
# Submitted via: CDex 1.51
#
DISCID=38043605
DTITLE=Sarah Mc Monagle - Best Mates
DYEAR=1900
DGENRE=Country
TTITLE0=Sarah Mc Monagle - Best Mates
TTITLE1=Sarah Mc Monagle - Gracie
TTITLE2=Sarah Mc Monagle - I Want To Come Home
TTITLE3=Sarah Mc Monagle - Love Never Runs On Time
TTITLE4=Sarah Mc Monagle - Our Old Queenslander
EXTD=
EXTT0=
EXTT1=
EXTT2=
EXTT3=
EXTT4=
PLAYORDER=
